<svg id="Group_8" data-name="Group 8" xmlns="http://www.w3.org/2000/svg" width="43.268" height="49.102" viewBox="0 0 43.268 49.102">
  <g id="Group_6" data-name="Group 6" transform="translate(5.709 16.232)">
    <path id="Path_16" data-name="Path 16" d="M267.79,80.658s-18.294,5.5-24.467,25.441c0,0-4.392-12.789,7.327-25.047,0,0,7.469-7.423,11.8-4.818a26.4,26.4,0,0,1,5.338,4.424" transform="translate(-230.232 -73.229)" fill="#f26311"/>
    <g id="Group_3" data-name="Group 3" transform="translate(0 2.226)">
      <g id="Group_2" data-name="Group 2">
        <path id="Path_17" data-name="Path 17" d="M231.467,75.785s-6.436,10.779.046,28.155a27.942,27.942,0,0,1-8.663-19.563s-.62-11.48,8.617-8.592" transform="translate(-222.841 -75.319)" fill="#feb787"/>
      </g>
    </g>
    <g id="Group_5" data-name="Group 5" transform="translate(8.112)">
      <g id="Group_4" data-name="Group 4">
        <path id="Path_18" data-name="Path 18" d="M247.655,72.345a15.356,15.356,0,0,1,2.931,1.523s-15.533,9.032-11.925,30.171c0,0-5.061-9.751-1.642-24.015,0,0,2.523-10.476,10.2-7.846Z" transform="translate(-235.833 -71.754)" fill="#f88a48"/>
      </g>
    </g>
  </g>
  <g id="Group_7" data-name="Group 7">
    <path id="Path_19" data-name="Path 19" d="M253.83,63.736a23.176,23.176,0,0,0-1.123-4.2c-2.968-8.065-10.235-13.781-18.774-13.781-11.175,0-20.236,9.778-20.236,21.831a22.74,22.74,0,0,0,5.4,14.856,27.475,27.475,0,0,1-.5-3.144,20.4,20.4,0,0,1-2.542-9.94c0-10.571,7.838-19.131,17.517-19.131a17.143,17.143,0,0,1,14.61,8.628,19.693,19.693,0,0,1,1.576,3.228c.174.032.348.057.518.106a16.1,16.1,0,0,1,3.55,1.547" transform="translate(-213.697 -45.757)" fill="#5d5c60"/>
    <path id="Path_20" data-name="Path 20" d="M268.215,89.707c-1.132.55-2.222,1.16-3.163,1.725a18.483,18.483,0,0,1-11.068,12.539l-1.065,1.462v.014c7.417-1.712,13.336-7.885,15.3-15.74" transform="translate(-228.43 -62.266)" fill="#5d5c60"/>
  </g>
</svg>
